<?xml version="1.0" encoding="iso-8859-1"?>
<!-- Generator: Adobe Illustrator 18.0.0, SVG Export Plug-In . SVG Version: 6.00 Build 0)  -->
<!DOCTYPE svg PUBLIC "-//W3C//DTD SVG 1.1//EN" "http://www.w3.org/Graphics/SVG/1.1/DTD/svg11.dtd">
<svg version="1.1" id="Capa_1" xmlns="http://www.w3.org/2000/svg" xmlns:xlink="http://www.w3.org/1999/xlink" x="0px" y="0px"
	 viewBox="0 0 60 60" style="enable-background:new 0 0 60 60;" xml:space="preserve">
<g>
	<path d="M59.923,0.618c-0.101-0.245-0.296-0.44-0.541-0.541C59.26,0.027,59.13,0,59,0H39c-0.553,0-1,0.448-1,1s0.447,1,1,1h17.586
		L34.293,24.293c-0.391,0.391-0.391,1.023,0,1.414C34.488,25.902,34.744,26,35,26s0.512-0.098,0.707-0.293L58,3.414V21
		c0,0.552,0.447,1,1,1s1-0.448,1-1V1C60,0.87,59.974,0.74,59.923,0.618z"/>
	<path d="M24.293,34.293L2,56.586V39c0-0.552-0.447-1-1-1s-1,0.448-1,1v20c0,0.13,0.027,0.26,0.077,0.382
		c0.101,0.245,0.296,0.44,0.541,0.541C0.74,59.973,0.87,60,1,60h20c0.553,0,1-0.448,1-1s-0.447-1-1-1H3.414l22.293-22.293
		c0.391-0.391,0.391-1.023,0-1.414S24.684,33.902,24.293,34.293z"/>
</g>
<g>
</g>
<g>
</g>
<g>
</g>
<g>
</g>
<g>
</g>
<g>
</g>
<g>
</g>
<g>
</g>
<g>
</g>
<g>
</g>
<g>
</g>
<g>
</g>
<g>
</g>
<g>
</g>
<g>
</g>
</svg>
