<?xml version="1.0" encoding="UTF-8" standalone="no"?>
<svg width="560px" height="334px" viewBox="0 0 560 334" version="1.1" xmlns="http://www.w3.org/2000/svg" xmlns:xlink="http://www.w3.org/1999/xlink">
    <!-- Generator: Sketch 43.2 (39069) - http://www.bohemiancoding.com/sketch -->
    <title>eye</title>
    <desc>Created with Sketch.</desc>
    <defs></defs>
    <g id="Page-1" stroke="none" stroke-width="1" fill="none" fill-rule="evenodd">
        <g id="eye" fill-rule="nonzero" fill="#AEB1BD">
            <path d="M280,0.1 C173,0.1 76,58.6 4.4,153.7 C-1.4,161.5 -1.4,172.4 4.4,180.2 C76,275.4 173,333.9 280,333.9 C387,333.9 484,275.4 555.6,180.3 C561.4,172.5 561.4,161.6 555.6,153.8 C484,58.6 387,0.1 280,0.1 Z M287.7,284.5 C216.7,289 158,230.4 162.5,159.3 C166.2,100.6 213.7,53.1 272.4,49.4 C343.4,44.9 402.1,103.5 397.6,174.6 C393.8,233.2 346.2,280.8 287.7,284.5 Z M284.1,230.2 C245.8,232.6 214.2,201.1 216.7,162.8 C218.6,131.2 244.3,105.6 275.9,103.6 C314.2,101.2 345.8,132.7 343.3,171 C341.3,202.7 315.6,228.3 284.1,230.2 Z" id="Shape"></path>
        </g>
    </g>
</svg>